<svg width="32" height="32" viewBox="0 0 32 32" fill="none" xmlns="http://www.w3.org/2000/svg">
  <defs>
    <linearGradient id="bg" x1="0%" y1="0%" x2="100%" y2="100%">
      <stop offset="0%" style="stop-color:#06b6d4"/>
      <stop offset="100%" style="stop-color:#3b82f6"/>
    </linearGradient>
  </defs>
  
  <!-- Background with rounded corners -->
  <rect width="32" height="32" rx="6" fill="url(#bg)"/>
  
  <!-- LayoutDashboard icon (same as navbar) -->
  <g transform="translate(8,8)" fill="white">
    <!-- Main dashboard grid -->
    <rect x="0" y="0" width="6" height="6" rx="1" fill="white" opacity="0.9"/>
    <rect x="7" y="0" width="9" height="6" rx="1" fill="white" opacity="0.7"/>
    <rect x="0" y="7" width="9" height="9" rx="1" fill="white" opacity="0.8"/>
    <rect x="10" y="7" width="6" height="9" rx="1" fill="white" opacity="0.6"/>
    
    <!-- Grid lines for dashboard effect -->
    <g stroke="rgba(6,182,212,0.8)" stroke-width="0.5" fill="none">
      <line x1="2" y1="2" x2="4" y2="2"/>
      <line x1="2" y1="4" x2="4" y2="4"/>
      <line x1="9" y1="2" x2="14" y2="2"/>
      <line x1="9" y1="4" x2="14" y2="4"/>
      <line x1="2" y1="9" x2="7" y2="9"/>
      <line x1="2" y1="12" x2="7" y2="12"/>
      <line x1="12" y1="9" x2="14" y2="9"/>
      <line x1="12" y1="12" x2="14" y2="12"/>
    </g>
  </g>
</svg>